<svg width="9" height="9" viewBox="0 0 9 9" fill="none" xmlns="http://www.w3.org/2000/svg">
<path d="M0.9875 8.81694C0.902167 8.81694 0.822167 8.78494 0.7475 8.72094C0.6835 8.65694 0.6515 8.57694 0.6515 8.48094C0.6515 8.44894 0.656833 8.41161 0.6675 8.36894C0.688833 8.31561 0.720833 8.25694 0.7635 8.19294L3.5475 4.56094L0.9395 1.12094C0.896833 1.05694 0.864833 1.00361 0.8435 0.96094C0.832833 0.918273 0.8275 0.875607 0.8275 0.83294C0.8275 0.73694 0.8595 0.65694 0.9235 0.59294C0.9875 0.52894 1.0675 0.49694 1.1635 0.49694H1.9795C2.09683 0.49694 2.18217 0.52894 2.2355 0.59294C2.2995 0.646274 2.35283 0.699607 2.3955 0.75294L4.5235 3.52094L6.6515 0.76894C6.69417 0.715607 6.74217 0.65694 6.7955 0.59294C6.8595 0.52894 6.95017 0.49694 7.0675 0.49694H7.8515C7.9475 0.49694 8.0275 0.52894 8.0915 0.59294C8.1555 0.65694 8.1875 0.73694 8.1875 0.83294C8.1875 0.875607 8.17683 0.918273 8.1555 0.96094C8.14483 1.00361 8.11817 1.05694 8.0755 1.12094L5.4355 4.59294L8.2195 8.19294C8.26217 8.25694 8.28883 8.31027 8.2995 8.35294C8.32083 8.39561 8.3315 8.43827 8.3315 8.48094C8.3315 8.57694 8.2995 8.65694 8.2355 8.72094C8.1715 8.78494 8.0915 8.81694 7.9955 8.81694H7.1475C7.04083 8.81694 6.9555 8.79027 6.8915 8.73694C6.8275 8.68361 6.77417 8.63027 6.7315 8.57694L4.4755 5.64894L2.2195 8.57694C2.17683 8.61961 2.1235 8.67294 2.0595 8.73694C2.00617 8.79027 1.92083 8.81694 1.8035 8.81694H0.9875Z" fill="#D9D9D9"/>
</svg>
