<svg width="16" height="17" viewBox="0 0 16 17" fill="none" xmlns="http://www.w3.org/2000/svg">
<g clip-path="url(#clip0_12_31)">
<path d="M4.07792 16.0766L11.3507 8.83965C11.487 8.70399 11.5636 8.51988 11.5636 8.32797C11.5636 8.136 11.487 7.95194 11.3506 7.81623L4.07787 0.579641C3.79385 0.297021 3.33339 0.297021 3.04937 0.579641C2.76539 0.862213 2.76534 1.32045 3.04937 1.60307L9.80781 8.32797L3.04937 15.0532C2.90735 15.1945 2.83637 15.3797 2.83637 15.5649C2.83637 15.7502 2.90735 15.9354 3.04941 16.0767C3.33344 16.3592 3.7939 16.3592 4.07792 16.0766Z" fill="white"/>
</g>
<defs>
<clipPath id="clip0_12_31">
<rect width="15.9209" height="16" fill="white" transform="matrix(0 1 -1 0 16 0.367676)"/>
</clipPath>
</defs>
</svg>
