<svg width="16" height="17" viewBox="0 0 16 17" fill="none" xmlns="http://www.w3.org/2000/svg">
<g clip-path="url(#clip0_11_145)">
<path d="M11.9221 0.579625L4.6494 7.8166C4.51301 7.95226 4.4364 8.13637 4.4364 8.32828C4.4364 8.52025 4.51306 8.70431 4.64944 8.84002L11.9222 16.0766C12.2062 16.3592 12.6667 16.3592 12.9507 16.0766C13.2347 15.794 13.2347 15.3358 12.9507 15.0532L6.19223 8.32828L12.9507 1.60305C13.0927 1.46174 13.1637 1.27653 13.1637 1.09131C13.1637 0.906099 13.0927 0.720886 12.9506 0.579576C12.6666 0.297005 12.2061 0.297005 11.9221 0.579625Z" fill="white"/>
</g>
<defs>
<clipPath id="clip0_11_145">
<rect width="15.9209" height="16" fill="white" transform="matrix(0 -1 1 0 0 16.2886)"/>
</clipPath>
</defs>
</svg>
